<?xml version="1.0" encoding="utf-8"?>
<!-- Generator: Adobe Illustrator 27.5.0, SVG Export Plug-In . SVG Version: 6.00 Build 0)  -->
<svg version="1.1" id="Camada_1" xmlns="http://www.w3.org/2000/svg" xmlns:xlink="http://www.w3.org/1999/xlink" x="0px" y="0px"
	 viewBox="0 0 300 300" style="enable-background:new 0 0 300 300;" xml:space="preserve">
<style type="text/css">
	.st0{fill:#FAB834;}
	.st1{fill:#3560AA;}
	.st2{fill:#0C91D1;}
	.st3{fill:#005A93;}
	.st4{fill:#5BC3DE;}
	.st5{fill:#FFFFFF;}
	.st6{fill:#6EC0A5;}
	.st7{fill:#E4786F;}
</style>
<g>
	<path class="st0" d="M216.1,19.4c-17.2-8.8-35.6-14-54.8-15.5l0.1-0.9c19.3,1.5,37.9,6.8,55.2,15.6L216.1,19.4z"/>
	<path class="st1" d="M104.7,10.6l-0.3-0.9c18.5-6,37.6-8.2,57-6.7l-0.1,0.9C142.1,2.4,123,4.7,104.7,10.6z"/>
	<path class="st2" d="M79.4,20.9c8.1-4.4,16.5-8,25.1-10.8"/>
	<path class="st3" d="M79.8,21.6l-0.7-1.3c8-4.4,16.5-8,25.2-10.8l0.4,1.4C96.1,13.6,87.7,17.2,79.8,21.6z"/>
	<path class="st4" d="M54.6,39.9c-0.5,0-1.1-0.2-1.4-0.7c-0.7-0.8-0.6-2,0.2-2.7c7.4-6.3,15.4-11.9,23.9-16.6
		c0.9-0.5,2.1-0.2,2.6,0.7c0.5,0.9,0.2,2.1-0.7,2.6C70.9,27.9,63,33.3,55.8,39.5C55.5,39.8,55,39.9,54.6,39.9z"/>
	<path class="st3" d="M35.9,57.9l-0.7-0.6c5.7-7.1,12.1-13.7,19.1-19.6l0.6,0.7C48,44.3,41.6,50.8,35.9,57.9z"/>
	<path class="st3" d="M19.5,83.1l-0.8-0.4c0.3-0.6,0.6-1.1,0.9-1.7l0.8,0.4C20.1,82,19.8,82.6,19.5,83.1z M21.3,79.8l-0.8-0.5
		c0.3-0.6,0.6-1.1,0.9-1.7l0.8,0.5C21.9,78.7,21.6,79.2,21.3,79.8z M23.2,76.5L22.3,76c0.3-0.5,0.6-1.1,1-1.6l0.8,0.5
		C23.8,75.4,23.5,76,23.2,76.5z M25.1,73.3l-0.8-0.5c0.3-0.5,0.7-1.1,1-1.6l0.8,0.5C25.7,72.2,25.4,72.7,25.1,73.3z M27.1,70.1
		l-0.8-0.5c0.3-0.5,0.7-1.1,1-1.6l0.8,0.5C27.8,69,27.4,69.5,27.1,70.1z M29.2,66.9l-0.8-0.5c0.4-0.5,0.7-1,1.1-1.6l0.8,0.5
		C29.9,65.9,29.5,66.4,29.2,66.9z M31.4,63.8l-0.8-0.6c0.4-0.5,0.7-1,1.1-1.5l0.8,0.6C32.1,62.8,31.7,63.3,31.4,63.8z M33.6,60.8
		l-0.8-0.6c0.4-0.5,0.8-1,1.2-1.5l0.7,0.6C34.4,59.8,34,60.3,33.6,60.8z"/>
	<path class="st1" d="M37.7,244.8c-12.6-14.8-22-31.6-28-50l0.9-0.3c5.9,18.3,15.3,35,27.8,49.7L37.7,244.8z"/>
	<path class="st5" d="M82.7,280.4c-17.2-8.8-32.4-20.7-45-35.5l0.7-0.6c12.5,14.7,27.6,26.6,44.7,35.3L82.7,280.4z"/>
	<path class="st5" d="M137.9,296c-19.3-1.5-37.9-6.8-55.2-15.6l0.4-0.8c17.2,8.7,35.6,14,54.8,15.5L137.9,296z"/>
	<path class="st0" d="M149.6,296.4c-3.9,0-7.8-0.2-11.7-0.5l0.1-0.9c19.2,1.5,38.3-0.7,56.6-6.7l0.3,0.9
		C180.1,294,164.9,296.4,149.6,296.4z"/>
	<path class="st4" d="M236.7,33.5c-0.4,0-0.8-0.1-1.1-0.4c-15.4-11.4-32.6-19.4-51-24c-1-0.3-1.6-1.3-1.4-2.3c0.2-1,1.3-1.6,2.3-1.4
		c19,4.7,36.6,13,52.4,24.6c0.8,0.6,1,1.8,0.4,2.6C237.9,33.3,237.3,33.5,236.7,33.5z"/>
	<path class="st4" d="M185,9.2c-0.2,0-0.3,0-0.5-0.1c-8.4-2.1-17.1-3.4-25.9-4c-1-0.1-1.8-1-1.8-2c0.1-1,1-1.8,2-1.8
		c8.9,0.6,17.9,1.9,26.5,4.1c1,0.3,1.6,1.3,1.4,2.3C186.7,8.6,185.9,9.2,185,9.2z"/>
	<path class="st4" d="M74.1,25.9c-0.6,0-1.3-0.3-1.6-0.9c-0.5-0.9-0.2-2.1,0.6-2.6c4.6-2.8,9.5-5.4,14.5-7.6c1-0.4,2.1,0,2.5,0.9
		c0.4,0.9,0,2.1-0.9,2.5c-4.8,2.2-9.6,4.7-14.1,7.5C74.8,25.8,74.4,25.9,74.1,25.9z"/>
	<path class="st3" d="M24,227c-0.6,0-1.3-0.3-1.6-0.9c-10.1-16.8-16.7-35.1-19.6-54.5c-0.2-1,0.6-2,1.6-2.2c1-0.2,2,0.6,2.2,1.6
		c2.8,18.9,9.2,36.7,19.1,53.1c0.5,0.9,0.2,2.1-0.6,2.6C24.7,226.9,24.3,227,24,227z"/>
	<path class="st6" d="M62.5,269.2c-0.4,0-0.8-0.1-1.1-0.4c-15.8-11.7-28.9-26.1-39-42.8c-0.5-0.9-0.2-2.1,0.6-2.6
		c0.9-0.5,2.1-0.2,2.6,0.6c9.8,16.3,22.6,30.3,38,41.7c0.8,0.6,1,1.8,0.4,2.6C63.6,268.9,63,269.2,62.5,269.2z"/>
	<path class="st4" d="M114.2,293.5c-0.2,0-0.3,0-0.5-0.1c-19-4.7-36.6-13-52.4-24.6c-0.8-0.6-1-1.8-0.4-2.6c0.6-0.8,1.8-1,2.6-0.4
		c15.4,11.4,32.6,19.4,51,24c1,0.2,1.6,1.3,1.4,2.3C115.8,293,115,293.5,114.2,293.5z"/>
	<path class="st0" d="M164.3,297.1c-1,0-1.8-0.7-1.9-1.7c-0.1-1,0.7-2,1.7-2.1c5.2-0.5,10.4-1.3,15.5-2.4c1-0.2,2,0.4,2.2,1.5
		c0.2,1-0.4,2-1.5,2.2c-5.2,1.1-10.6,2-15.9,2.5C164.5,297.1,164.4,297.1,164.3,297.1z"/>
	<path class="st6" d="M153.5,298.2c-1.2,0.7-2.8,0.3-3.5-0.9c-0.7-1.2-0.3-2.7,0.9-3.5c1.2-0.7,2.8-0.3,3.5,0.9
		C155.1,296,154.7,297.5,153.5,298.2"/>
	<path class="st7" d="M55.9,40.2c-1.2,0.7-2.8,0.3-3.5-0.9c-0.7-1.2-0.3-2.7,0.9-3.5c1.2-0.7,2.8-0.3,3.5,0.9
		C57.5,37.9,57.1,39.5,55.9,40.2"/>
	<path class="st6" d="M36.6,59.9c-1.2,0.7-2.8,0.3-3.5-0.9c-0.7-1.2-0.3-2.7,0.9-3.5c1.2-0.7,2.8-0.3,3.5,0.9
		C38.2,57.6,37.8,59.2,36.6,59.9"/>
	<path class="st5" d="M20.4,85.1c-1.2,0.7-2.8,0.3-3.5-0.9c-0.7-1.2-0.3-2.7,0.9-3.5c1.2-0.7,2.8-0.3,3.5,0.9
		C22,82.8,21.6,84.4,20.4,85.1"/>
	
		<rect x="135.7" y="293.3" transform="matrix(0.1618 -0.9868 0.9868 0.1618 -176.005 383.7448)" class="st5" width="4.3" height="4.3"/>
	<path class="st0" d="M105.8,12.3c-1.2,0.7-2.8,0.3-3.5-0.9c-0.7-1.2-0.3-2.7,0.9-3.5c1.2-0.7,2.7-0.3,3.5,0.9
		C107.4,10,107,11.6,105.8,12.3"/>
	<path class="st6" d="M120.4,8.4c-1.2,0.7-2.8,0.3-3.5-0.9c-0.7-1.2-0.3-2.7,0.9-3.5c1.2-0.7,2.8-0.3,3.5,0.9
		C121.9,6.1,121.6,7.7,120.4,8.4"/>
	<path class="st1" d="M189.6,37.1c-14.8-5.3-30.2-7.7-45.9-7l0-1c15.8-0.7,31.4,1.6,46.3,7L189.6,37.1z"/>
	<path class="st3" d="M98.7,41.2l-0.4-0.9c14.3-6.7,29.6-10.5,45.4-11.2l0,1C128,30.8,112.9,34.6,98.7,41.2z"/>
	<path class="st5" d="M37.3,108.3l-1-0.4c5.4-14.8,13.5-28.3,24.2-40l0.8,0.7C50.7,80.3,42.7,93.6,37.3,108.3z"/>
	<path class="st4" d="M29.3,154.1c-0.7-15.8,1.6-31.3,7-46.2l1,0.4c-5.3,14.7-7.7,30.1-7,45.8L29.3,154.1z"/>
	<path class="st4" d="M40.5,199.5c-6.7-14.3-10.5-29.6-11.2-45.4l1,0c0.7,15.7,4.4,30.8,11.1,45L40.5,199.5z"/>
	<polygon class="st4" points="68.3,237.2 67.5,236.4 68.2,235.7 69,236.4 	"/>
	<path class="st4" d="M65.9,235c-0.5-0.5-1-1-1.5-1.5l0.7-0.7c0.5,0.5,1,1,1.5,1.5L65.9,235z M62.9,231.9c-0.5-0.5-1-1-1.5-1.6
		l0.8-0.7c0.5,0.5,1,1,1.5,1.5L62.9,231.9z M60,228.8c-0.5-0.5-1-1.1-1.4-1.6l0.8-0.7c0.5,0.5,0.9,1.1,1.4,1.6L60,228.8z
		 M57.2,225.6c-0.5-0.5-0.9-1.1-1.4-1.7l0.8-0.7c0.4,0.5,0.9,1.1,1.3,1.6L57.2,225.6z M54.5,222.3c-0.4-0.6-0.9-1.1-1.3-1.7l0.8-0.6
		c0.4,0.6,0.9,1.1,1.3,1.7L54.5,222.3z M51.9,218.8c-0.4-0.6-0.8-1.2-1.2-1.7l0.9-0.6c0.4,0.6,0.8,1.2,1.2,1.7L51.9,218.8z
		 M49.4,215.3c-0.4-0.6-0.8-1.2-1.2-1.8l0.9-0.6c0.4,0.6,0.8,1.2,1.2,1.8L49.4,215.3z M47.1,211.7c-0.4-0.6-0.7-1.2-1.1-1.8l0.9-0.5
		c0.4,0.6,0.7,1.2,1.1,1.8L47.1,211.7z M44.9,208c-0.4-0.6-0.7-1.2-1-1.9l0.9-0.5c0.3,0.6,0.7,1.2,1,1.9L44.9,208z M42.9,204.3
		c-0.3-0.6-0.7-1.3-1-1.9l0.9-0.5c0.3,0.6,0.6,1.3,1,1.9L42.9,204.3z"/>
	<path class="st4" d="M41,200.5c-0.2-0.3-0.3-0.6-0.4-0.9l0.9-0.4c0.1,0.3,0.3,0.6,0.4,0.9L41,200.5z"/>
	<path class="st0" d="M108.3,261.3c-14.9-5.4-28.3-13.5-40-24.2l0.7-0.8c11.6,10.6,25,18.7,39.7,24L108.3,261.3z"/>
	<path class="st0" d="M149,268.5c-13.9,0-27.6-2.4-40.8-7.2l0.4-1c14.8,5.3,30.2,7.7,45.9,7l0,1C152.7,268.4,150.9,268.5,149,268.5z
		"/>
	<path class="st5" d="M154.5,268.4l0-1c15.7-0.7,30.8-4.4,45-11.1l0.4,0.9C185.6,263.9,170.3,267.6,154.5,268.4z"/>
	<path class="st0" d="M136,32.3c-1,0-1.9-0.8-2.1-1.9c-0.1-1.1,0.7-2.2,1.8-2.3c6.9-0.8,13.9-0.9,20.8-0.5c1.1,0.1,2,1.1,1.9,2.2
		c-0.1,1.1-1,2-2.2,1.9c-6.7-0.4-13.4-0.3-20.1,0.5C136.1,32.3,136.1,32.3,136,32.3z"/>
	<path class="st3" d="M90.3,47c-0.7,0-1.4-0.4-1.8-1.1c-0.6-1-0.2-2.3,0.8-2.8c4.5-2.5,9.2-4.8,14-6.8c1.1-0.4,2.3,0.1,2.7,1.1
		c0.4,1.1-0.1,2.3-1.1,2.7c-4.6,1.9-9.2,4.1-13.6,6.6C91,47,90.6,47,90.3,47z"/>
	<path class="st0" d="M29.9,143.4c0,0-0.1,0-0.1,0c-1.1-0.1-2-1.1-1.9-2.2c0.7-11,2.9-21.9,6.5-32.3c0.4-1.1,1.6-1.7,2.6-1.3
		c1.1,0.4,1.7,1.6,1.3,2.6c-3.5,10.1-5.6,20.6-6.3,31.2C32,142.6,31,143.4,29.9,143.4z"/>
	<path class="st5" d="M78.5,246.9c-0.4,0-0.9-0.1-1.2-0.4c-7-5.1-13.4-11-19.1-17.5c-0.8-0.9-0.7-2.2,0.2-2.9
		c0.9-0.8,2.2-0.7,2.9,0.2c5.5,6.2,11.7,11.9,18.5,16.9c0.9,0.7,1.1,2,0.4,2.9C79.7,246.6,79.1,246.9,78.5,246.9z"/>
	<path class="st5" d="M119.2,266.2c-0.2,0-0.3,0-0.5-0.1c-8.5-2.2-16.7-5.3-24.5-9.3c-1-0.5-1.4-1.8-0.9-2.8s1.8-1.4,2.8-0.9
		c7.5,3.8,15.5,6.8,23.7,8.9c1.1,0.3,1.8,1.4,1.5,2.5C121,265.6,120.1,266.2,119.2,266.2z"/>
	<path class="st7" d="M39.5,202.2L39.5,202.2c-0.7-1.1-0.3-2.6,0.9-3.3l0,0c1.1-0.7,2.6-0.3,3.3,0.9c0.7,1.1,0.3,2.6-0.9,3.3h0
		C41.6,203.8,40.2,203.4,39.5,202.2"/>
	<path class="st5" d="M172.9,268.1c-1.5-0.1-2.7-1.4-2.6-2.9c0.1-1.5,1.4-2.7,2.9-2.6c1.5,0.1,2.7,1.4,2.6,2.9
		C175.7,267.1,174.4,268.2,172.9,268.1"/>
	<path class="st6" d="M152.1,267.9L152.1,267.9c0-1.3,1-2.4,2.3-2.4h0c1.3,0,2.4,1,2.4,2.3c0,1.3-1,2.4-2.3,2.4h0
		C153.3,270.3,152.2,269.2,152.1,267.9"/>
	<path class="st4" d="M194.4,117c-4.3-6.9-9.8-12.8-16.4-17.5l0.9-1.3c6.7,4.8,12.4,10.9,16.8,17.9L194.4,117z"/>
	<path class="st4" d="M178,99.5c-6.6-4.7-13.9-8-21.8-9.8l0.4-1.6c8.1,1.9,15.7,5.3,22.4,10.1L178,99.5z"/>
	<path class="st2" d="M132.1,88.1c7.8-1.3,16-1.1,24.3,0.8"/>
	<path class="st3" d="M156.2,89.7c-7.9-1.8-16-2.1-23.9-0.8l-0.3-1.6c8.2-1.4,16.4-1.1,24.6,0.8L156.2,89.7z"/>
	<path class="st2" d="M109.4,96.7c6.9-4.3,14.6-7.2,22.7-8.6"/>
	<path class="st3" d="M109.8,97.4L109,96c7.1-4.4,14.8-7.3,23-8.7l0.3,1.6C124.2,90.2,116.7,93.1,109.8,97.4z"/>
	<path class="st1" d="M92.1,113.6l-0.8-0.6c4.8-6.7,10.8-12.3,17.9-16.7l0.5,0.9C102.7,101.4,96.8,107,92.1,113.6z"/>
	<path class="st1" d="M82.2,135.5l-1-0.2c1.9-8.1,5.3-15.6,10.1-22.3l0.8,0.6C87.4,120.2,84,127.5,82.2,135.5z"/>
	<path class="st3" d="M80.4,159.7c-1.4-8.1-1.1-16.3,0.8-24.4l1,0.2c-1.8,8-2.1,16-0.8,24L80.4,159.7z"/>
	<path class="st3" d="M89.5,183.4c-0.4,0-0.7-0.2-0.9-0.5c-4.4-7.1-7.4-14.9-8.7-23.1c-0.1-0.6,0.3-1.2,0.9-1.3
		c0.6-0.1,1.2,0.3,1.3,0.9c1.3,7.9,4.2,15.4,8.4,22.3c0.3,0.5,0.2,1.2-0.4,1.5C89.9,183.3,89.7,183.4,89.5,183.4z"/>
	<path class="st4" d="M105.6,200.6c-6.7-4.8-12.4-10.8-16.8-17.9l1.4-0.8c4.3,6.9,9.8,12.8,16.4,17.5L105.6,200.6z"/>
	<path class="st4" d="M126.3,210.3c-7.5-2-14.4-5.2-20.7-9.7l0.9-1.3c6.1,4.3,12.9,7.5,20.1,9.4L126.3,210.3z"/>
	<path class="st5" d="M150.8,211.8l-0.2-1.6c0.6-0.1,1.2-0.2,1.7-0.3l0.3,1.6C152,211.6,151.4,211.7,150.8,211.8z"/>
	<path class="st4" d="M142.3,212.1c-0.5,0-1,0-1.6,0l0-1c0.5,0,1,0,1.5,0l0.6,0l0,1L142.3,212.1z M145.1,212l0-1
		c0.7,0,1.4-0.1,2.1-0.1l0.1,1C146.5,211.9,145.8,212,145.1,212z M138.6,212c-0.7,0-1.4-0.1-2.1-0.2l0.1-1c0.7,0.1,1.4,0.1,2.1,0.2
		L138.6,212z"/>
	<path class="st5" d="M132.8,211.6c-0.6-0.1-1.2-0.2-1.8-0.3l0.3-1.6c0.6,0.1,1.2,0.2,1.7,0.3L132.8,211.6z"/>
	<path class="st5" d="M174,203.7l-0.8-1.4c0.5-0.3,1-0.6,1.5-0.9l0.8,1.4C175.1,203.1,174.6,203.4,174,203.7z"/>
	<path class="st5" d="M159.8,209.9l-0.4-1.5c1.2-0.3,2.3-0.7,3.5-1.1l0.5,1.5C162.2,209.1,161,209.5,159.8,209.9z M166.9,207.3
		l-0.6-1.5c1.1-0.5,2.3-1,3.4-1.5l0.7,1.4C169.2,206.3,168,206.8,166.9,207.3z"/>
	<path class="st5" d="M152.6,211.5l-0.3-1.6c0.6-0.1,1.2-0.2,1.7-0.3l0.3,1.6C153.8,211.3,153.2,211.4,152.6,211.5z"/>
	<path class="st5" d="M175.6,202.8l-0.8-1.4c6.9-4.3,12.8-9.8,17.5-16.4l1.3,0.9C188.7,192.7,182.7,198.4,175.6,202.8z"/>
	<path class="st4" d="M111.6,205.6c-0.3,0-0.7-0.1-1-0.3c-7.4-4.1-13.7-9.7-19-16.4c-0.7-0.9-0.5-2.2,0.4-2.9
		c0.9-0.7,2.2-0.5,2.9,0.4c4.9,6.3,10.9,11.4,17.8,15.3c1,0.6,1.4,1.8,0.8,2.8C113.1,205.2,112.4,205.6,111.6,205.6z"/>
	<path class="st5" d="M173.9,206.1c-1.1,0-2.2-0.6-2.8-1.6c-0.9-1.5-0.4-3.5,1.1-4.4c4.8-2.8,9.2-6.4,13.1-10.5
		c1.2-1.3,3.2-1.3,4.5-0.1c1.3,1.2,1.3,3.2,0.1,4.5c-4.3,4.6-9.2,8.5-14.5,11.6C175,206,174.4,206.1,173.9,206.1z"/>
	<path class="st7" d="M150.7,87.4L150.7,87.4c0.2-2.3,2.3-3.9,4.5-3.6h0c2.3,0.2,3.9,2.3,3.6,4.5c-0.2,2.2-2.2,3.9-4.5,3.6h0
		C152.1,91.7,150.5,89.7,150.7,87.4"/>
	<g>
		<path class="st0" d="M82.3,19.4l-0.4-0.8C99.1,9.8,117.7,4.5,137,3l0.1,0.9C117.9,5.5,99.4,10.7,82.3,19.4z"/>
		<path class="st1" d="M193.7,10.6c-18.4-5.9-37.4-8.2-56.6-6.7L137,3c19.3-1.5,38.5,0.7,57,6.7L193.7,10.6z"/>
		<path class="st2" d="M218.9,20.9c-8.1-4.4-16.5-8-25.1-10.8"/>
		<path class="st3" d="M218.6,21.6c-7.9-4.3-16.3-7.9-24.9-10.7l0.4-1.4c8.7,2.8,17.2,6.5,25.2,10.8L218.6,21.6z"/>
		<path class="st3" d="M262.4,57.9c-5.7-7-12.1-13.6-19-19.5l0.6-0.7c7,5.9,13.4,12.5,19.1,19.6L262.4,57.9z"/>
		<path class="st3" d="M278.8,83.1c-0.3-0.6-0.6-1.1-0.9-1.7l0.8-0.4c0.3,0.6,0.6,1.1,0.9,1.7L278.8,83.1z M277.1,79.8
			c-0.3-0.6-0.6-1.1-0.9-1.7l0.8-0.5c0.3,0.6,0.6,1.1,0.9,1.7L277.1,79.8z M275.2,76.5c-0.3-0.5-0.6-1.1-1-1.6l0.8-0.5
			c0.3,0.5,0.6,1.1,1,1.6L275.2,76.5z M273.3,73.3c-0.3-0.5-0.7-1.1-1-1.6l0.8-0.5c0.3,0.5,0.7,1.1,1,1.6L273.3,73.3z M271.3,70.1
			c-0.3-0.5-0.7-1.1-1-1.6L271,68c0.4,0.5,0.7,1.1,1,1.6L271.3,70.1z M269.2,66.9c-0.4-0.5-0.7-1-1.1-1.5l0.8-0.5
			c0.4,0.5,0.7,1,1.1,1.6L269.2,66.9z M267,63.8c-0.4-0.5-0.7-1-1.1-1.5l0.8-0.6c0.4,0.5,0.8,1,1.1,1.5L267,63.8z M264.7,60.8
			c-0.4-0.5-0.8-1-1.2-1.5l0.7-0.6c0.4,0.5,0.8,1,1.2,1.5L264.7,60.8z"/>
		<path class="st1" d="M294.4,138c-1.5-19.2-6.8-37.6-15.5-54.8l0.8-0.4c8.8,17.3,14.1,35.9,15.6,55.2L294.4,138z"/>
		<path class="st1" d="M288.7,194.8l-0.9-0.3c5.9-18.3,8.1-37.4,6.6-56.6l0.9-0.1C296.9,157.2,294.6,176.4,288.7,194.8z"/>
		<path class="st1" d="M260.7,244.8l-0.7-0.6c12.5-14.7,21.9-31.4,27.8-49.7l0.9,0.3C282.7,213.2,273.3,230.1,260.7,244.8z"/>
		<path class="st5" d="M215.7,280.4l-0.4-0.8c17.1-8.7,32.2-20.6,44.7-35.3l0.7,0.6C248.1,259.6,233,271.6,215.7,280.4z"/>
		<path class="st0" d="M148.8,296.4c-15.4,0-30.5-2.4-45.3-7.2l0.3-0.9c18.4,5.9,37.4,8.2,56.6,6.7l0.1,0.9
			C156.6,296.3,152.7,296.4,148.8,296.4z"/>
		<path class="st4" d="M61.6,33.5c-0.6,0-1.2-0.3-1.5-0.8c-0.6-0.8-0.4-2,0.4-2.6c15.8-11.7,33.4-19.9,52.4-24.6
			c1-0.3,2,0.4,2.3,1.4c0.3,1-0.4,2-1.4,2.3c-18.5,4.6-35.7,12.7-51,24C62.4,33.4,62,33.5,61.6,33.5z"/>
		<path class="st4" d="M113.3,9.2c-0.8,0-1.6-0.6-1.8-1.4c-0.3-1,0.4-2,1.4-2.3c8.7-2.1,17.6-3.5,26.5-4.1c1-0.1,1.9,0.7,2,1.8
			c0.1,1-0.7,1.9-1.8,2c-8.7,0.5-17.4,1.9-25.9,4C113.6,9.2,113.5,9.2,113.3,9.2z"/>
		<path class="st5" d="M293.7,173.2c-0.1,0-0.2,0-0.3,0c-1-0.2-1.7-1.1-1.6-2.2c2.8-18.9,1.9-37.8-2.7-56.4c-0.3-1,0.4-2,1.4-2.3
			c1-0.3,2,0.4,2.3,1.4c4.7,19,5.7,38.5,2.8,57.8C295.4,172.5,294.6,173.2,293.7,173.2z"/>
		<path class="st3" d="M274.4,227c-0.3,0-0.7-0.1-1-0.3c-0.9-0.5-1.2-1.7-0.6-2.6c9.8-16.4,16.3-34.2,19.1-53.1
			c0.2-1,1.1-1.8,2.2-1.6c1,0.2,1.7,1.1,1.6,2.2c-2.9,19.4-9.5,37.7-19.6,54.5C275.6,226.6,275,227,274.4,227z"/>
		<path class="st6" d="M235.9,269.2c-0.6,0-1.2-0.3-1.5-0.8c-0.6-0.8-0.4-2,0.4-2.6c15.4-11.4,28.2-25.4,38-41.7
			c0.5-0.9,1.7-1.2,2.6-0.6c0.9,0.5,1.2,1.7,0.6,2.6c-10.1,16.7-23.2,31.1-39,42.8C236.7,269.1,236.3,269.2,235.9,269.2z"/>
		<path class="st4" d="M184.2,293.5c-0.8,0-1.6-0.6-1.8-1.4c-0.3-1,0.4-2,1.4-2.3c18.5-4.6,35.7-12.7,51-24c0.8-0.6,2-0.4,2.6,0.4
			c0.6,0.8,0.4,2-0.4,2.6c-15.8,11.7-33.4,19.9-52.4,24.6C184.5,293.5,184.3,293.5,184.2,293.5z"/>
		<path class="st0" d="M134,297.1c-0.1,0-0.1,0-0.2,0c-5.3-0.5-10.6-1.4-15.9-2.5c-1-0.2-1.7-1.2-1.5-2.2c0.2-1,1.2-1.7,2.2-1.5
			c5.1,1.1,10.3,1.9,15.5,2.4c1,0.1,1.8,1,1.7,2.1C135.8,296.3,135,297.1,134,297.1z"/>
		<path class="st6" d="M144.8,298.2c1.2,0.7,2.8,0.3,3.5-0.9c0.7-1.2,0.3-2.7-0.9-3.5c-1.2-0.7-2.8-0.3-3.5,0.9
			C143.3,296,143.7,297.5,144.8,298.2"/>
		<path class="st7" d="M242.5,40.2c1.2,0.7,2.8,0.3,3.5-0.9c0.7-1.2,0.3-2.7-0.9-3.5c-1.2-0.7-2.8-0.3-3.5,0.9
			C240.9,37.9,241.3,39.5,242.5,40.2"/>
		<path class="st6" d="M261.8,59.9c1.2,0.7,2.8,0.3,3.5-0.9c0.7-1.2,0.3-2.7-0.9-3.5c-1.2-0.7-2.8-0.3-3.5,0.9
			C260.2,57.6,260.6,59.2,261.8,59.9"/>
		<path class="st5" d="M277.9,85.1c1.2,0.7,2.8,0.3,3.5-0.9c0.7-1.2,0.3-2.7-0.9-3.5c-1.2-0.7-2.8-0.3-3.5,0.9
			C276.4,82.8,276.8,84.4,277.9,85.1"/>
		
			<rect x="158.3" y="293.3" transform="matrix(0.9868 -0.1618 0.1618 0.9868 -45.6976 29.8612)" class="st5" width="4.3" height="4.3"/>
		<path class="st0" d="M192.6,12.3c1.2,0.7,2.8,0.3,3.5-0.9c0.7-1.2,0.3-2.7-0.9-3.5c-1.2-0.7-2.7-0.3-3.5,0.9
			C191,10,191.4,11.6,192.6,12.3"/>
		<path class="st6" d="M178,8.4c1.2,0.7,2.8,0.3,3.5-0.9c0.7-1.2,0.3-2.7-0.9-3.5c-1.2-0.7-2.8-0.3-3.5,0.9
			C176.4,6.1,176.8,7.7,178,8.4"/>
		<path class="st1" d="M108.8,37.1l-0.4-1c14.9-5.4,30.5-7.7,46.3-7l0,1C139,29.4,123.6,31.8,108.8,37.1z"/>
		<path class="st5" d="M261,108.3c-5.3-14.7-13.4-28-24-39.6l0.8-0.7c10.7,11.7,18.8,25.1,24.2,40L261,108.3z"/>
		<path class="st4" d="M269,154.1l-1,0c0.7-15.7-1.6-31.1-7-45.8l1-0.4C267.4,122.8,269.8,138.3,269,154.1z"/>
		<path class="st4" d="M257.9,199.5l-0.9-0.4c6.6-14.2,10.4-29.3,11.1-45l1,0C268.3,169.9,264.6,185.2,257.9,199.5z"/>
		<polygon class="st4" points="230.1,237.2 229.4,236.4 230.2,235.7 230.9,236.4 		"/>
		<path class="st4" d="M232.4,235l-0.7-0.8c0.5-0.5,1-1,1.5-1.5l0.7,0.7C233.5,234,233,234.5,232.4,235z M235.5,231.9l-0.7-0.7
			c0.5-0.5,1-1,1.5-1.5l0.8,0.7C236.5,230.9,236,231.4,235.5,231.9z M238.4,228.8l-0.8-0.7c0.5-0.5,0.9-1.1,1.4-1.6l0.8,0.7
			C239.3,227.8,238.9,228.3,238.4,228.8z M241.2,225.6l-0.8-0.7c0.5-0.5,0.9-1.1,1.3-1.6l0.8,0.7C242.1,224.5,241.7,225,241.2,225.6
			z M243.9,222.3l-0.8-0.6c0.4-0.6,0.9-1.1,1.3-1.7l0.8,0.6C244.8,221.1,244.3,221.7,243.9,222.3z M246.5,218.8l-0.8-0.6
			c0.4-0.6,0.8-1.2,1.2-1.7l0.9,0.6C247.3,217.7,246.9,218.3,246.5,218.8z M248.9,215.3l-0.9-0.6c0.4-0.6,0.8-1.2,1.2-1.8l0.9,0.6
			C249.7,214.1,249.3,214.7,248.9,215.3z M251.2,211.7l-0.9-0.5c0.4-0.6,0.7-1.2,1.1-1.8l0.9,0.5C252,210.5,251.6,211.1,251.2,211.7
			z M253.4,208l-0.9-0.5c0.4-0.6,0.7-1.2,1-1.9l0.9,0.5C254.1,206.8,253.8,207.4,253.4,208z M255.5,204.3l-0.9-0.5
			c0.3-0.6,0.7-1.3,1-1.9l0.9,0.5C256.1,203,255.8,203.7,255.5,204.3z"/>
		<polygon class="st4" points="257.4,200.5 256.5,200 256.9,199.1 257.9,199.5 		"/>
		<path class="st0" d="M190.1,261.3l-0.4-1c14.7-5.3,28.1-13.4,39.7-24l0.7,0.8C218.4,247.8,204.9,256,190.1,261.3z"/>
		<path class="st0" d="M149.3,268.5c-1.8,0-3.7,0-5.5-0.1l0-1c15.7,0.7,31.1-1.6,45.9-7l0.4,1C176.9,266.1,163.2,268.5,149.3,268.5z
			"/>
		<path class="st5" d="M143.8,268.4c-15.8-0.7-31.1-4.5-45.4-11.2l0.4-0.9c14.2,6.6,29.4,10.4,45,11.1L143.8,268.4z"/>
		<path class="st0" d="M162.4,32.3c-0.1,0-0.2,0-0.2,0c-6.7-0.7-13.4-0.9-20.1-0.5c-1.2,0.1-2.1-0.8-2.2-1.9
			c-0.1-1.1,0.8-2.1,1.9-2.2c6.9-0.4,13.9-0.3,20.8,0.5c1.1,0.1,2,1.2,1.8,2.3C164.3,31.5,163.4,32.3,162.4,32.3z"/>
		<path class="st0" d="M268.4,143.4c-1.1,0-2-0.8-2.1-1.9c-0.7-10.6-2.8-21.1-6.3-31.2c-0.4-1.1,0.2-2.3,1.3-2.6
			c1.1-0.4,2.3,0.2,2.6,1.3c3.6,10.4,5.8,21.3,6.5,32.3c0.1,1.1-0.8,2.1-1.9,2.2C268.5,143.4,268.5,143.4,268.4,143.4z"/>
		<path class="st5" d="M219.9,246.9c-0.6,0-1.3-0.3-1.7-0.8c-0.7-0.9-0.5-2.2,0.4-2.9c6.7-4.9,13-10.6,18.5-16.9
			c0.8-0.9,2.1-0.9,2.9-0.2c0.9,0.8,0.9,2.1,0.2,2.9c-5.7,6.5-12.2,12.3-19.1,17.5C220.8,246.8,220.3,246.9,219.9,246.9z"/>
		<path class="st5" d="M179.2,266.2c-0.9,0-1.8-0.6-2-1.6c-0.3-1.1,0.4-2.2,1.5-2.5c8.2-2.1,16.1-5.1,23.7-8.9
			c1-0.5,2.3-0.1,2.8,0.9s0.1,2.3-0.9,2.8c-7.8,3.9-16,7.1-24.5,9.3C179.5,266.2,179.3,266.2,179.2,266.2z"/>
		<path class="st7" d="M258.8,202.2L258.8,202.2c0.7-1.1,0.3-2.6-0.9-3.3l0,0c-1.1-0.7-2.6-0.3-3.3,0.9c-0.7,1.1-0.3,2.6,0.9,3.3h0
			C256.7,203.8,258.2,203.4,258.8,202.2"/>
		<path class="st5" d="M125.5,268.1c1.5-0.1,2.7-1.4,2.6-2.9c-0.1-1.5-1.4-2.7-2.9-2.6c-1.5,0.1-2.7,1.4-2.6,2.9
			C122.6,267.1,124,268.2,125.5,268.1"/>
		<path class="st6" d="M146.2,267.9L146.2,267.9c0-1.3-1-2.4-2.3-2.4h0c-1.3,0-2.4,1-2.4,2.3c0,1.3,1,2.4,2.3,2.4h0
			C145.1,270.3,146.2,269.2,146.2,267.9"/>
		<path class="st4" d="M104,117l-1.4-0.8c4.4-7.1,10.1-13.1,16.8-17.9l0.9,1.3C113.8,104.2,108.3,110.1,104,117z"/>
	</g>
</g>
<g>
</g>
<g>
</g>
<g>
</g>
<g>
</g>
<g>
</g>
<g>
</g>
</svg>
