<?xml version="1.0" encoding="utf-8"?>
<!-- Generator: Adobe Illustrator 27.5.0, SVG Export Plug-In . SVG Version: 6.00 Build 0)  -->
<svg version="1.1" id="Camada_1" xmlns="http://www.w3.org/2000/svg" xmlns:xlink="http://www.w3.org/1999/xlink" x="0px" y="0px"
	 viewBox="0 0 30 30" style="enable-background:new 0 0 30 30;" xml:space="preserve">
<style type="text/css">
	.st0{fill:#1977F3;}
</style>
<g>
	<g>
		<path class="st0" d="M17.3,29.7c-0.2,0-0.5,0.1-0.7,0.1C16.9,29.8,17.1,29.8,17.3,29.7z"/>
		<path class="st0" d="M16.6,29.8c-0.2,0-0.4,0-0.7,0.1C16.1,29.9,16.4,29.9,16.6,29.8z"/>
		<path class="st0" d="M15.8,29.9c-0.3,0-0.5,0-0.8,0C15.3,29.9,15.6,29.9,15.8,29.9z"/>
		<path class="st0" d="M18.1,29.6c-0.2,0-0.5,0.1-0.7,0.1C17.6,29.7,17.9,29.7,18.1,29.6z"/>
		<path class="st0" d="M15,0c-8.3,0-15,6.7-15,15c0,8.1,6.4,14.6,14.3,14.9c-0.2,0-0.4,0-0.6,0l0-9.5h-2.5c-0.3,0-0.6-0.3-0.6-0.6
			l0-3.1c0-0.3,0.3-0.6,0.6-0.6h2.5v-3c0-3.5,2.1-5.4,5.3-5.4h2.6c0.3,0,0.6,0.3,0.6,0.6v2.6c0,0.3-0.3,0.6-0.6,0.6l-1.6,0
			c-1.7,0-2,0.8-2,2V16h3.7c0.4,0,0.6,0.3,0.6,0.7L22,19.8c0,0.3-0.3,0.5-0.6,0.5h-3.4v9.3C24.9,28.2,30,22.2,30,15
			C30,6.7,23.3,0,15,0z"/>
	</g>
</g>
<g>
</g>
<g>
</g>
<g>
</g>
<g>
</g>
<g>
</g>
<g>
</g>
</svg>
