<?xml version="1.0" encoding="utf-8"?>
<!-- Generator: Adobe Illustrator 27.5.0, SVG Export Plug-In . SVG Version: 6.00 Build 0)  -->
<svg version="1.1" id="Camada_1" xmlns="http://www.w3.org/2000/svg" xmlns:xlink="http://www.w3.org/1999/xlink" x="0px" y="0px"
	 viewBox="0 0 30 30" style="enable-background:new 0 0 30 30;" xml:space="preserve">
<style type="text/css">
	.st0{fill:url(#SVGID_1_);}
	.st1{fill:url(#SVGID_00000172398824406198200680000009616048639382368139_);}
	.st2{fill:url(#SVGID_00000084504541202730938910000010226899781087102849_);}
</style>
<g>
	<linearGradient id="SVGID_1_" gradientUnits="userSpaceOnUse" x1="6.2008" y1="-0.4991" x2="27.2335" y2="36.5471">
		<stop  offset="0" style="stop-color:#FEC053"/>
		<stop  offset="0.3273" style="stop-color:#F2203E"/>
		<stop  offset="0.6485" style="stop-color:#B729A8"/>
		<stop  offset="1" style="stop-color:#5342D6"/>
	</linearGradient>
	<path class="st0" d="M15,11.9c-1.7,0-3.1,1.4-3.1,3.1c0,1.7,1.4,3.1,3.1,3.1s3.1-1.4,3.1-3.1C18.1,13.3,16.7,11.9,15,11.9z"/>
	
		<linearGradient id="SVGID_00000110437842707629969040000014570441132790131131_" gradientUnits="userSpaceOnUse" x1="6.2008" y1="-0.4991" x2="27.2335" y2="36.5471">
		<stop  offset="0" style="stop-color:#FEC053"/>
		<stop  offset="0.3273" style="stop-color:#F2203E"/>
		<stop  offset="0.6485" style="stop-color:#B729A8"/>
		<stop  offset="1" style="stop-color:#5342D6"/>
	</linearGradient>
	<path style="fill:url(#SVGID_00000110437842707629969040000014570441132790131131_);" d="M18.9,7.3h-7.8C9,7.3,7.3,9,7.3,11.1v7.8
		c0,2.1,1.7,3.8,3.8,3.8h7.8c2.1,0,3.8-1.7,3.8-3.8v-7.8C22.7,9,21,7.3,18.9,7.3z M15,20c-2.8,0-5-2.2-5-5c0-2.8,2.2-5,5-5
		c2.8,0,5,2.2,5,5C20,17.8,17.8,20,15,20z M20,11.2c-0.7,0-1.2-0.5-1.2-1.2c0-0.7,0.5-1.2,1.2-1.2c0.7,0,1.2,0.5,1.2,1.2
		C21.2,10.7,20.7,11.2,20,11.2z"/>
	
		<linearGradient id="SVGID_00000057149105132367019500000005238212348887809166_" gradientUnits="userSpaceOnUse" x1="6.2006" y1="-0.499" x2="27.2332" y2="36.5472">
		<stop  offset="0" style="stop-color:#FEC053"/>
		<stop  offset="0.3273" style="stop-color:#F2203E"/>
		<stop  offset="0.6485" style="stop-color:#B729A8"/>
		<stop  offset="1" style="stop-color:#5342D6"/>
	</linearGradient>
	<path style="fill:url(#SVGID_00000057149105132367019500000005238212348887809166_);" d="M15,0C6.7,0,0,6.7,0,15
		c0,8.3,6.7,15,15,15c8.3,0,15-6.7,15-15C30,6.7,23.3,0,15,0z M24.7,18.9c0,3.2-2.6,5.8-5.8,5.8h-7.8c-3.2,0-5.8-2.6-5.8-5.8v-7.8
		c0-3.2,2.6-5.8,5.8-5.8h7.8c3.2,0,5.8,2.6,5.8,5.8V18.9z"/>
</g>
<g>
</g>
<g>
</g>
<g>
</g>
<g>
</g>
<g>
</g>
<g>
</g>
</svg>
