<?xml version="1.0" encoding="utf-8"?>
<!-- Generator: Adobe Illustrator 27.5.0, SVG Export Plug-In . SVG Version: 6.00 Build 0)  -->
<svg version="1.1" id="Camada_1" xmlns="http://www.w3.org/2000/svg" xmlns:xlink="http://www.w3.org/1999/xlink" x="0px" y="0px"
	 viewBox="0 0 30 30" style="enable-background:new 0 0 30 30;" xml:space="preserve">
<style type="text/css">
	.st0{fill:#0077B7;}
</style>
<path class="st0" d="M15,0C6.7,0,0,6.7,0,15c0,8.3,6.7,15,15,15c8.3,0,15-6.7,15-15C30,6.7,23.3,0,15,0z M10.5,23.6
	c0,0.3-0.3,0.6-0.6,0.6H7.2c-0.3,0-0.6-0.3-0.6-0.6V12.5c0-0.3,0.3-0.6,0.6-0.6h2.6c0.3,0,0.6,0.3,0.6,0.6V23.6z M8.5,10.8
	C7.1,10.8,6,9.7,6,8.3c0-1.4,1.1-2.5,2.5-2.5c1.4,0,2.5,1.1,2.5,2.5C11,9.7,9.9,10.8,8.5,10.8z M24.3,23.6c0,0.3-0.3,0.6-0.6,0.6
	h-2.8c-0.3,0-0.6-0.3-0.6-0.6v-5.2c0-0.8,0.2-3.4-2-3.4c-1.7,0-2.1,1.8-2.2,2.6v6c0,0.3-0.3,0.6-0.6,0.6h-2.7
	c-0.3,0-0.6-0.3-0.6-0.6V12.4c0-0.3,0.3-0.6,0.6-0.6h2.7c0.3,0,0.6,0.3,0.6,0.6v1c0.6-1,1.6-1.7,3.7-1.7c4.5,0,4.5,4.2,4.5,6.6V23.6
	z"/>
<g>
</g>
<g>
</g>
<g>
</g>
<g>
</g>
<g>
</g>
<g>
</g>
</svg>
