<?xml version="1.0" encoding="utf-8"?>
<!-- Generator: Adobe Illustrator 27.6.1, SVG Export Plug-In . SVG Version: 6.00 Build 0)  -->
<svg version="1.1" id="Camada_1" xmlns="http://www.w3.org/2000/svg" xmlns:xlink="http://www.w3.org/1999/xlink" x="0px" y="0px"
	 viewBox="0 0 786.4 301.5" style="enable-background:new 0 0 786.4 301.5;" xml:space="preserve">
<style type="text/css">
	.st0{fill:#FFFFFF;}
	.st1{fill-rule:evenodd;clip-rule:evenodd;fill:#FFFFFF;}
</style>
<g>
	<g>
		<path class="st0" d="M308.1,236.9c-1.5-1.1-3.4-2.1-5.6-2.8c4.9-2.6,7.3-5.7,7.3-9.4c0-2.4-0.8-4.6-2.2-6.6
			c-1.5-2-3.8-3.4-6.7-4.4c-2.1-0.7-5.2-1-9.6-1c-3.1,0-5.4,0-6.9,0.1c-3.7,0.2-7,0.4-9.9,0.6l-3.6,0.2c-0.3,0-0.6,0.1-1.1,0.2
			l-0.5,0.1v2.1l0.5,0.1c0.7,0.2,1.6,0.3,2.7,0.3c1.5,0.1,3.2,0.2,5.1,0.5l0.1,8c0.2,4.9,0.2,10.7,0.2,17.3v3.9c0,0.2,0,1.2,0.1,2.9
			c0,0.6,0,1,0,1.4c0,4.1-0.1,6.6-0.4,7.6c-0.1,0.4-0.3,0.6-0.6,0.8c-0.2,0.1-1,0.4-5.2,1.3c-0.6,0.1-0.9,0.3-1.1,0.6
			c-0.2,0.2-0.4,0.6-0.4,1.1v1l0.5,0c0.9,0.1,1.7,0.1,2.7,0.1c0.8,0,3.3,0,7.6-0.1l6.8-0.2h5.6c6.1,0,10.9-1.5,14.4-4.5
			c3.5-3,5.3-6.5,5.3-10.4c0-2.3-0.4-4.2-1.1-5.7C311.3,240,309.9,238.3,308.1,236.9z M299.4,231c-1.8,2.2-5.4,3.4-10.6,3.4
			c-1.2,0-2.3-0.1-3.4-0.3l-0.3-5.5l0-2.7l0.1-4.6c0-0.8,0-1.5,0-2.3c-0.1-1.2-0.1-1.9-0.1-2.1c0-0.2,0-0.4,0-0.7
			c3.6-0.8,8-0.8,11.9,0.5c1.2,0.4,2.2,1,3,1.8c0.8,0.8,1.4,1.7,1.7,2.7c0.3,1,0.5,2,0.5,3C302.2,226.5,301.3,228.8,299.4,231z
			 M304.7,252.5c-0.6,1.4-1.3,2.6-2.4,3.5c-1,1-1.9,1.7-2.6,2.1c-1.6,0.8-3.6,1.3-6,1.5c-3,0-5.1-0.4-6.2-1.1
			c-1-0.7-1.6-1.5-1.8-2.4c-0.2-1-0.3-4.5-0.4-10.4l0-6l0-1.4c0-0.2,0-0.4,0-0.8c0.7-0.1,2.5-0.2,7.1-0.2c2.3,0,4.4,0.4,6.3,1.1
			c1.9,0.7,3.3,1.6,4.2,2.7c0.9,1.1,1.6,2.3,2,3.7c0.4,1.4,0.6,2.7,0.6,3.6C305.6,249.8,305.3,251.1,304.7,252.5z"/>
		<path class="st0" d="M416.4,260.8l-0.2-0.1c-0.5-0.2-1.3-0.5-2.5-0.9c-0.3-0.1-0.9-0.3-1.7-0.5c-0.9-0.2-1.2-0.3-1.2-0.3
			c-0.2-0.2-0.7-0.7-1.2-2c-0.5-1.1-1.5-4-3.1-8.7l-8.8-23.9c-1.1-2.6-1.8-4.5-2.2-5.8c-0.8-2.5-1.8-4.8-2.9-7l-0.2-0.3l-1.7,0
			l-1.5,0.1l-0.1,0.4c-0.8,2.4-1.4,4.2-1.9,5.6c-2,5.2-3.4,9-4,10.7l-3.5,9.9c-0.6,1.6-1.2,3.2-1.8,4.7c-0.2,0.5-0.7,2-1.5,4.1
			c-1.6,4.7-3.1,8.3-4.4,10.8c-0.6,1.1-1.2,1.8-2,2.2c-0.1,0-0.6,0.2-3.2,0.5c-0.4,0-0.7,0-0.9,0c0,0-0.6,0-1.5-0.1
			c-1.6-0.4-2.9-0.7-3.7-1.1c-1-0.5-1.8-1.1-2.5-1.8c-0.5-0.5-1.6-1.9-3.9-5.6l-4.8-8.2c-1.4-2.3-2.5-4.3-3.3-6
			c0.4-0.2,0.9-0.5,1.5-0.8c5-2.5,7.6-6.3,7.6-11.1c0-2.5-0.7-4.9-2.1-6.9c-1.4-2.1-3.3-3.6-5.6-4.4c-2.3-0.9-6.2-1.3-12-1.3
			l-9.9,0.1h-3.1c-0.5,0-1.1,0-1.7,0.1c-0.5,0.1-0.9,0.1-1,0.1c-1.1,0-1.7,0.2-2.1,0.5l-0.1,0.1l0,0.2c-0.1,0.3-0.1,0.6-0.1,0.8
			c0,0.5,0.2,0.9,0.6,1.1c0.2,0.1,0.6,0.3,3.4,0.7c2.3,0.3,3,0.8,3.2,1.1c0.2,0.2,0.6,1.2,0.5,4.9l0,6.8l0,9.4l-0.1,5.1l0.1,4.5
			c0,1,0,2.1-0.1,3.2c-0.1,2.7-0.3,6-0.3,6.8v0.3c-0.3,0.6-0.5,0.7-0.5,0.7c-0.2,0.1-1.2,0.3-6,0.9l-0.2,0l-0.1,0.1
			c-0.5,0.4-0.7,0.8-0.7,1.4l0.2,0.8l1.3,0.2c2-0.1,3.2-0.1,3.4-0.1l5,0l5.1-0.1c0.3,0,0.7,0,1.1,0c0.9,0.1,2.5,0.1,4.8,0.1
			c0.3,0,0.8-0.1,1.5-0.2l0.5-0.1v-0.5c0-0.6-0.1-1-0.4-1.4l-0.1-0.2l-1.7-0.4c-3-0.7-3.8-1.1-4.1-1.2c-0.4-0.2-0.6-0.5-0.8-0.8
			c-0.2-0.8-0.3-1.4-0.3-1.8v-12.9c0-2,0-3.4,0.1-4.3l0.5,0l3.2,0c0.7,0,1.3,0.1,1.7,0.3c0.3,0.1,0.8,0.6,1.6,1.7l5.6,10.2
			c2.5,4.2,4.5,7.9,6.3,11.2l0.2,0.3l0.3,0c0.6,0.1,1.1,0.1,1.4,0.1c4.6,0,8.6,0,12.1-0.1l0,0c0,0,0,0,0,0c0.4,0,1.5,0,2.3,0
			l1.2-0.1c0.7,0,1.2-0.1,1.6-0.1c0.5,0,1.4,0,2.6,0.1c2.7,0.1,5,0.2,7,0.2c0.6,0,1.5,0,2.6,0l0.4,0l0.1-0.4
			c0.1-0.3,0.1-0.7,0.1-0.9c0-0.5-0.3-1-1-1.1l-5.1-0.4c-0.7-0.1-1.2-0.2-1.6-0.3c-0.2-0.4-0.2-0.6-0.2-0.6c0-0.2,0.2-1.2,2.1-6.3
			l3.3-10.4c0.1-0.3,0.2-0.7,0.5-1.2c0.9-0.1,1.6-0.1,2.3-0.1l2.4,0l8.1-0.1c0.7,0,1.4,0.1,2.3,0.2c2.3,6.2,3.5,9.7,3.9,10.8
			c0.3,1.2,0.7,2.4,1.2,3.6c0.8,2.4,0.9,3.1,0.9,3.3c0,0.1,0,0.2-0.1,0.6c-0.5,0.1-1.1,0.2-1.9,0.3l-4,0.3c-0.3,0-0.7,0.1-1,0.3
			l-0.2,0.1l-0.1,0.2c-0.1,0.4-0.2,0.8-0.2,1.2v0.3l0.3,0.2c0.3,0.2,0.6,0.3,1,0.3h0.8c0.2,0,0.5,0,0.8,0c0.3,0,0.7,0,1,0l4.5-0.1
			l3.8,0.1c3.2,0.1,5.5,0.1,6.8,0.1c0.3,0,0.9,0,1.7,0l0.4,0l0.1-0.4c0.1-0.3,0.1-0.5,0.1-0.7c0-0.2-0.1-0.5-0.2-0.8L416.4,260.8z
			 M395.6,238.2c-1.3,0.1-2.7,0.1-4.4,0.1c-3.2,0-6-0.1-8.5-0.2c0.5-1.5,1.6-4.7,1.8-5.5c0.7-2.2,1.9-5.2,3.4-9.1
			c0.5-1.1,0.8-2,1.1-2.5l3.2,8c0.2,0.4,1.1,2.9,2.7,7.2C395.2,236.8,395.5,237.5,395.6,238.2z M332.8,219c0-0.6,0-1.4,0.1-2.4
			c0.8-0.1,1.5-0.1,2.1-0.1c2.7,0,5,0.5,6.8,1.4c1.9,0.9,3.2,2.1,3.9,3.4c1,1.8,1.5,3.5,1.5,5.1c0,1.5-0.3,2.9-1,4.3
			c-0.7,1.4-1.5,2.4-2.4,3.1c-1,0.7-2.2,1.2-3.8,1.5c-2.3,0.4-4.4,0.6-6.1,0.6c-0.2,0-0.5,0-0.9,0c-0.1-2.8-0.1-5.1-0.1-6.9l0-2.9
			L332.8,219z"/>
		<path class="st0" d="M444.7,237.9c-1.8-1.3-4.7-3.1-8.7-5.1c-5.2-2.7-8.4-4.7-9.7-6c-1.2-1.2-1.8-2.6-1.8-4.1c0-2,0.8-3.7,2.5-5.2
			c1.7-1.5,4-2.3,6.6-2.3c2.6,0,4.8,0.8,6.6,2.3c1.8,1.5,3.1,4,3.9,7.4l0.1,0.4l0.8,0.2c0.2,0,0.5-0.1,0.8-0.2l0.3-0.1l0.1-0.3
			c0.1-0.4,0.1-1.4,0.2-2.8l0.1-3.4c0-0.2,0-0.7-0.3-2.9l0-0.3l-0.2-0.2c-1.5-1.1-2.9-1.8-4.3-2.3c-1.9-0.6-4.2-0.9-6.8-0.9
			c-4.8,0-8.6,1.3-11.5,3.8c-2.9,2.5-4.3,5.7-4.3,9.3c0,2,0.4,3.8,1.2,5.4c1.1,1.9,2.7,3.8,4.9,5.5c1.3,1.1,4.1,2.7,8.5,5
			c4.2,2.2,7.1,4.1,8.4,5.7c1.3,1.6,2,3.3,2,5.2c0,1.4-0.4,2.8-1.3,4.3c-0.9,1.5-2.1,2.6-3.7,3.4c-1.6,0.8-3.3,1.2-5.2,1.2
			c-3.1,0-5.8-1.2-8.3-3.5c-2.5-2.3-3.8-5-4.1-7.9c-0.1-0.6-0.2-1-0.4-1.2c-0.3-0.3-0.6-0.5-1-0.5c-0.7,0-1,0.4-1.1,0.5
			c-0.1,0.2-0.3,0.6-0.4,2.4c0,1.9-0.2,4.3-0.6,7.2c-0.1,0.5-0.1,0.8-0.1,1.1c0,0.6,0.3,1.2,0.8,1.7c0.3,0.3,1,0.8,3.6,1.7
			c3.2,1.1,6.5,1.7,9.9,1.7c4,0,7.2-0.6,9.6-1.9c2.4-1.2,4.4-3.1,5.9-5.6c1.4-2.4,2.2-5.1,2.2-7.9c0-2.2-0.5-4.3-1.4-6.1
			C447.8,240.9,446.5,239.3,444.7,237.9z"/>
		<path class="st0" d="M466.7,213.6l-10-0.2h-3.8l0,0.6c0,0.8,0.2,1.3,0.6,1.6c0.3,0.2,1,0.4,3.8,0.7c1.9,0.1,3.2,0.4,4.1,0.8
			c0.1,0.2,0.2,0.5,0.3,0.6c0.2,1.7,0.2,3.4,0.2,5c0,0.6,0,1.1,0,1.6l-0.1,2l0.1,7.9l-0.1,2.7l0.1,4.5l0,8.1c0,7.8-0.5,9.1-0.7,9.3
			c-0.2,0.2-1.1,0.8-6.2,1.2c-0.6,0.1-1.3,0.2-1.9,0.5l-0.4,0.2l0.1,2.1l10.1,0l5.2-0.1c1.6,0.1,2.7,0.1,3.4,0.1
			c1.1,0,2.8,0,5.1-0.1l0.6,0v-0.9c0-0.3,0-0.6-0.1-1l0-0.2l-0.1-0.1c-0.5-0.5-1.5-0.7-3.1-0.8c-0.6,0-1.5-0.2-2.6-0.4
			c-0.8-0.2-1.2-0.5-1.4-0.7c-0.2-0.2-0.4-0.5-0.6-1.4c-0.1-0.5-0.2-1.9-0.2-5.3c0-0.7,0-2.2,0.1-4.3l-0.2-23.4l0.2-4.9
			c0.1-1.4,0.2-2,0.4-2.3c0.1-0.2,0.2-0.3,0.4-0.4c0.3-0.1,1.2-0.4,4.2-0.7c1.2-0.1,2-0.3,2.6-0.4l0.4-0.1l0.1-0.4
			c0.1-0.4,0.1-0.8,0.1-1.2v-0.6l-0.6,0C472.5,213.6,469.2,213.6,466.7,213.6z"/>
		<path class="st0" d="M522.7,249l-0.1,0.4c-0.8,1.9-1.4,3.2-1.9,3.8c-0.3,0.4-0.5,0.7-0.7,1c-0.5,0.9-1.3,1.8-2.3,2.6
			c-2.1,1.7-3,2.3-3.5,2.4c-0.7,0.3-1.8,0.4-3.5,0.5l-6.5,0.2h-2.6c-2.7,0-4.4,0-5.2-0.1c0-0.1-0.1-0.4-0.1-0.8l0-2.3l0.1-10.6
			l-0.1-12.5l0-11.6c0-1.2,0.1-2.1,0.1-2.5c0-2,0.4-2.4,0.6-2.5c0.1-0.1,0.7-0.2,3.8-0.4c3.5-0.1,3.9-0.2,4-0.2l0.4-0.1l0.1-0.4
			c0.2-0.6,0.3-1.1,0.3-1.6l0-0.6l-0.6,0c-0.8-0.1-2.2-0.1-4.3-0.1c0,0-0.1,0-0.1,0l-3,0.2c-0.1,0-0.5,0-2.5,0
			c-0.6-0.1-1-0.1-1.2-0.1h0l-0.9,0l-9-0.3c-1.1-0.1-1.9-0.1-2.4-0.1h-0.5l0,0.5c0,0.3,0,0.5,0,0.7c0,0.1,0,0.4,0,0.7l0,0.5l0.4,0.1
			c4.5,0.8,5.6,1,5.9,1.1c0.4,0.1,0.8,0.2,1.3,0.5c0.1,0.4,0.2,0.6,0.2,0.6c0.1,1.3,0.1,4.6,0.1,9.9l0,11.2l0,6.7l-0.3,9.9
			c-0.1,2.7-0.3,3.2-0.3,3.3c-0.1,0.2-0.6,0.5-2,0.6c-1.9,0.2-3.8,0.5-5.8,1.1l-0.2,0.1l-0.1,0.2c-0.2,0.4-0.3,0.8-0.4,1.3l0,0.6
			h4.6c0.8,0,1.5,0,2.3-0.1c2.2-0.2,9.4-0.3,21.4-0.3l14.6,0.4l0.1-0.5c0.1-0.4,0.1-0.9,0.2-1.4c0.3-2.3,0.8-5.2,1.5-8.8
			c0.2-0.8,0.3-1.7,0.5-2.6l0.1-0.7H522.7z"/>
		<path class="st0" d="M269.4,188.6l0.2-3.9c4.7-0.6,7.7-1.6,8.9-2.9c0.8-0.9,1.5-3.3,1.9-7.1l0.7-20.3l0.8-20.6
			c0.1-1.3,0.1-2,0.1-2.3c0-5.4-0.3-8.5-0.9-9.3c-0.6-0.8-3-1.7-7.2-2.5c-1-0.2-1.9-0.4-2.5-0.6c-0.1-0.9-0.1-1.7-0.1-2.4V115
			c1.4-0.1,3-0.2,4.9-0.2l16.4,0.6c0.4,0,0.9,0.1,1.6,0.1l2.6,0.1c0.6,0.8,1.3,1.8,1.9,3c1.4,2.8,3.2,6.9,5.5,12.2l0.6,1.5l8.7,19.4
			c0.2,0.4,0.5,1.1,0.9,2c0.6,1.3,1.2,2.6,1.8,3.9c0.6,1.2,1.2,2.6,1.9,4.1c0.7,1.5,1.3,2.8,1.8,4c0.5-0.9,1-1.9,1.5-3
			c1.5-3.5,3-6.7,4.4-9.6c2.5-5.2,5.8-13.1,10.1-23.7c0.7-1.7,1.8-4.3,3.3-7.7c1.6-3.4,2.4-5.3,2.6-5.4c0.3-0.3,1-0.5,2-0.5
			c0.4,0,1,0,1.7-0.1c1.9-0.1,4.3-0.2,7-0.3c3.9,0,7.1-0.2,9.5-0.4c2.4-0.2,3.7-0.3,4-0.3c0.4,0,0.8,0,1.3,0.1c0,0.5,0.1,1,0.1,1.3
			l-0.1,1.7c0,0.3,0,0.9-0.1,1.5c-3.5,0.5-6.4,1.3-8.6,2.4c-1.5,0.8-2.3,1.7-2.3,2.9v0.9l1,17.5c0.1,1.6,0.4,9.5,0.9,23.8
			c0.1,3.2,0.4,7.2,0.7,12.1c0.1,0.6,0.1,1.1,0.1,1.4c0,0.9,0.2,1.5,0.6,1.8c0.4,0.3,3.4,1.3,9.8,3.3c0,0.6,0.1,1.1,0.1,1.4
			c0,0.8,0,1.6-0.1,2.4c-1,0-3.2-0.2-7.3-0.6c-4.1-0.4-7.9-0.7-11.5-0.7c-5.4,0-10.7,0.2-15.9,0.7c-0.7,0.1-1.3,0.1-2,0.2l0.1-3.9
			c1.5-0.6,3.6-1.1,6.1-1.5c1.8-0.3,2.9-0.8,3.4-1.5c0.5-0.7,0.7-2.7,0.7-6c0-1.3,0-2.4-0.1-3.3c-0.2-4-0.3-9.5-0.3-16.7l-1-20.1
			c-0.1-2.9-0.2-4.8-0.4-5.9l-14,32.6c-0.3,0.8-0.8,1.9-1.5,3.3c-0.9,1.9-1.4,3.1-1.7,3.8c-2.9,7-4.9,12.4-6,16.1
			c-0.3,1-0.7,2.1-1.3,3.7l-4.3,0l-3-8.7c-0.9-2.3-2.4-5.7-4.6-10.4c-1.3-2.7-2.3-4.9-3-6.6c-0.3-0.7-0.6-1.2-0.7-1.5l-0.7-1.4
			c0-0.2-0.1-0.4-0.2-0.6l-8.4-18.3l-5.1-11.1l-0.4,27l-0.4,17.5c0,2.9,0.5,5,1.6,6.2c1.1,1.2,3.4,2.3,6.9,3.2l2.7,0.7v4.2
			c-2.2,0-4.5-0.2-7-0.5c-2.5-0.3-5.8-0.4-9.9-0.4C279.6,188.1,275.9,188.3,269.4,188.6z"/>
		<path class="st0" d="M371.7,188.9l0.1-3.8c0.7-0.2,2-0.5,3.8-0.8c2.9-0.6,4.1-1.5,4.8-2c0.6-0.4,1.4-1.5,2.3-3.3l11.3-29.7
			l13.3-34.9c1.2,0,2.4,0,3.6,0h2.5l0.5,1l9.8,23.2c2.2,4.9,4.2,9.7,6,14.3c1.8,4.6,3.3,8.4,4.5,11.3c0.7,1.8,1.8,4.4,3.1,7.9
			c0.7,1.9,1.7,4.3,3.1,7.2c0.7,1.6,1.3,2.5,1.7,2.8c0.7,0.6,1.8,0.9,3.3,1.1c1.5,0.2,3.2,0.6,4.9,1.3c0.2,1.2,0.3,2.2,0.3,2.8
			c0,0.3,0,0.7-0.1,1.2c-2.8,0-5.8-0.1-9.2-0.4c-3.3-0.3-6.3-0.4-9-0.4c-3,0-5.1,0-6.4,0.1l-9.6,0.5l-2.8,0.1c0-1.3,0.1-2.6,0.2-3.8
			l6.2-1.3c1.9-0.5,3-0.9,3.3-1.1c0.4-0.4,0.6-0.8,0.6-1.3c0-0.5-0.1-1-0.3-1.5l-2.2-5.5l-4.4-11l-21.5-0.1c-0.8,1.8-2.4,6.2-5,13.2
			c-0.7,2-1.1,3.3-1.1,4c0,1,0.3,1.7,0.8,2.1c0.9,0.7,2.5,1.2,4.9,1.5c0.3,0.1,1.7,0.3,4,0.6c0,1.3,0.1,2.3,0.1,2.8
			c0,0.4,0,0.8-0.1,1.3c-2.3,0-7.9-0.3-16.6-1l-2.3,0.4C377.4,188.2,371.7,188.9,371.7,188.9z M397.7,156.9
			c8.8,0.1,13.9,0.2,15.5,0.2l1.4-0.1c-1.1-3.3-2.6-7.2-4.4-11.7c-1.8-4.4-3.3-7.8-4.4-10.1L397.7,156.9z"/>
		<path class="st0" d="M452.7,185c1-0.5,2.4-0.9,4.3-1.2c1.9-0.2,3.6-0.6,5.2-1.2c0.2-0.7,0.3-1.3,0.3-1.6c0.1-0.5,0.1-2.3,0.1-5.4
			l-0.1-12.5l0.2-6.7l-0.1-5.2l0.1-3c0.1-4.1,0.2-7.9,0.2-11.5c0-7.8-0.1-12.8-0.3-15l-3.3-0.7c-3-0.2-5.1-0.4-6.1-0.6l-0.1-3.4
			l0.2-0.6c1.9-0.3,3.6-0.4,5.2-0.4c0.9,0,2.6,0,5.2-0.1c2.7,0.2,4.2,0.3,4.4,0.3l3-0.2l7-0.3c4.4-0.4,9-0.7,13.9-0.7
			c7.7,0,13.8,2,18.3,5.9c4.5,3.9,6.8,8.4,6.8,13.5c0,3.8-1.2,7.2-3.7,10.3c-2.4,3.1-6.2,5.4-11.3,7c0.4,0.8,1,1.7,1.8,2.8
			c1.6,2.2,2.8,4.2,3.8,5.7l9,14.6c2.2,3.9,3.7,6.1,4.4,6.8c0.7,0.7,2.1,1.4,4.3,2.2c1.7,0.6,3,1.3,3.9,1.9c0.2,0.6,0.3,1.2,0.3,1.7
			c0,0.3,0,0.8-0.1,1.3h-1.5l-1.1,0.1l-2.9-0.4h-2.3c-1.2-0.2-2.7-0.3-4.4-0.3l-5.6-0.1c-0.4,0-1.7,0.1-3.9,0.4
			c-1,0.1-1.8,0.2-2.4,0.3l-1.9-3.7c-1.6-2.8-2.7-4.9-3.3-6.3c-1.6-3.6-4.5-9.4-8.5-17.4c-1.9-3.7-3.2-5.8-3.9-6.2
			c-1.1-0.8-3.1-1.2-5.8-1.2c-0.7,0-2,0-3.8,0.1c-0.1,1.1-0.2,2.4-0.2,3.9l0.3,12.5l-0.3,10.6c1,0.6,2.4,1.1,4.1,1.5
			c2.9,0.6,5.4,1.3,7.5,2.1c0,1.8-0.1,3.2-0.2,4.2c-0.7,0-1.2-0.1-1.3-0.1l-2.3,0.1c-8.1-0.7-12.8-1.1-14.3-1.1c-1,0-1.7,0-2.1,0.1
			l-7.8,0.5c-2.4,0.3-4.5,0.4-6.5,0.4h-2.4c-0.1-0.9-0.1-1.5-0.1-1.8C452.5,186.3,452.5,185.8,452.7,185z M478,148.6
			c1.8,0.1,3.1,0.1,3.9,0.1c6.4,0,10.9-1.1,13.5-3.4c2.7-2.3,4-5.3,4-9.2c0-2.4-0.3-4.6-1-6.7c-0.7-2.1-1.5-3.6-2.4-4.6
			c-1.4-1.5-3.2-2.6-5.4-3.3c-1.6-0.6-4.3-0.8-7.9-0.8c-1.7,0-3.2,0.1-4.4,0.3l-0.1,1.1l0.1,7.6l-0.2,4.6l0.1,6.1
			c-0.1,1.7-0.1,4-0.2,6.7V148.6z"/>
		<path class="st0" d="M531.9,188.5v-4c0.7-0.2,2-0.5,3.7-1c2.4-0.6,4.2-1.2,5.4-1.9c0.7-1.2,1-2.8,1-4.8l-0.1-6.6l0.1-12.8l-0.1-3
			c0.3-7.4,0.4-11.2,0.4-11.5l-0.1-7.5l0.2-3l-0.3-6.4l-0.1-2.4c0-0.4-0.2-1-0.4-1.8c-1.5-0.7-4-1.2-7.5-1.3c-0.8,0-1.5-0.1-2-0.2
			l-0.1-4.9l16.1,0.7c2,0.1,3.2,0.1,3.7,0.1c2.2,0,5.8-0.1,10.6-0.4c2.7-0.2,4.5-0.3,5.2-0.3c0,0.7,0.1,1.3,0.1,1.8
			c0,0.6,0,1.5-0.1,2.5c-1.5,0.5-3.2,1-5.1,1.5c-1.9,0.5-3.5,0.9-4.7,1.4c-0.2,1-0.3,2.4-0.3,4.2c0,1.6,0.1,2.9,0.2,3.9
			c-0.1,6.3-0.2,11.2-0.2,14.6l0.1,14.8l-0.3,7.5l0.1,13.4c0,0.3,0.1,0.7,0.3,1.3c2.3,0.5,4.3,0.8,6.2,1c0.3,0,1.5,0.2,3.4,0.4
			c0.1,1.1,0.2,2.1,0.2,2.8c0,0.4,0,1-0.1,1.9c-0.5,0-0.9,0-1.1,0.1c-1.2,0.1-1.9,0.1-2.1,0.1c-0.3,0-0.7-0.1-1.5-0.2
			c-0.5-0.1-3-0.3-7.5-0.8l-9.9-0.1c-2,0-4.9,0.2-8.6,0.6C534.3,188.3,532.7,188.5,531.9,188.5z"/>
		<path class="st0" d="M619.1,117.3c0.4,1.3,0.7,3.2,1,5.8c0.4,3.9,0.7,6.9,0.7,9c0,0.7-0.1,1.4-0.2,2.2l-0.6,0.2l-4-0.3l-0.7-0.1
			c-1.6-4.9-3.3-8.3-4.9-10.1c-2.8-3-6.2-4.5-10.1-4.5c-3.7,0-6.6,1-8.7,2.9c-2.2,1.9-3.2,4.3-3.2,7.2c0,2.4,1.1,4.7,3.2,6.9
			c2.1,2.2,6.6,4.3,13.4,6.3c2.3,0.7,5.1,1.8,8.3,3.2c3.2,1.5,5.7,3.1,7.4,4.9c2.2,2.3,3.8,4.6,4.6,6.7c0.8,2.2,1.3,4.8,1.3,8.1
			c0,3.5-0.7,7-2,10.4c-0.7,1.8-1.9,3.5-3.4,5.1c-1.1,1.1-2.9,2.4-5.2,4c-2.4,1.5-4.8,2.6-7.3,3.3c-2.5,0.7-5.8,1-9.8,1
			c-2.6,0-5.8-0.4-9.4-1.1l-6.7-2c-1.9-0.5-3.1-1-3.5-1.4c-0.2-0.1-0.4-0.5-0.5-1.1v-0.6c0-0.4-0.1-3-0.3-7.7
			c-0.1-2.4-0.1-4.2-0.1-5.2v-2.1l5.2-0.1c1.8,4.2,3,6.7,3.5,7.6c1.2,1.9,2.4,3.5,3.8,4.7c1.4,1.2,3.1,2.1,5,2.8
			c1.9,0.7,4.1,1,6.3,1c2,0,4.2-0.4,6.7-1.3c2.4-0.9,4.4-2.3,5.9-4.2c1.5-2,2.2-4.1,2.2-6.3c0-2.8-1.3-5.3-3.9-7.7
			c-1.6-1.5-5.8-3.4-12.7-5.9c-6.9-2.4-11.7-4.6-14.3-6.5c-2.7-1.9-4.8-4.5-6.3-7.7c-1.5-3.2-2.3-6.3-2.3-9.3c0-6,2.1-11,6.4-15.2
			c4.3-4.2,10.6-6.2,18.9-6.2c1.8,0,4.5,0.3,8,1C612.7,115.3,615.6,116.1,619.1,117.3z"/>
		<path class="st0" d="M636.1,113.2h3.5c0.3,0.4,0.4,0.7,0.6,0.9c1,1.8,1.9,3,2.4,3.6c0.5,0.1,3.1,0.2,7.7,0.2c2.9,0,5.5,0,7.7,0
			l1.1-0.1l6.8-0.1l12.7,0.1H696l3.3-0.5c0.5-0.3,1-1.3,1.6-2.7c0.1-0.3,0.4-0.8,0.6-1.4l2.5-0.1c0.4,0,0.9,0,1.7,0.1
			c0,2.6,0.1,6.5,0.1,11.7l0.1,5l-0.1,2.9c0,1-0.1,1.8-0.2,2.5c-1.5,0.5-2.9,0.8-4,0.9c-1-1.5-2-3.6-3.2-6.4
			c-1.1-2.8-1.9-4.3-2.2-4.6c-0.5-0.5-1-0.8-1.6-1c-0.9-0.2-4.9-0.3-11.9-0.3c-1.1,0-2.4,0.1-3.9,0.2c-0.2,1.5-0.3,2.7-0.3,3.6
			l0.1,7.5V151l0.2,17.8l-0.1,7.3c0,2.6,0.2,4.5,0.7,5.8c0.6,0.3,1.7,0.5,3.3,0.7c0.3,0,1.7,0.3,4.2,0.9c1.1,0.3,2.1,0.6,3,0.9
			c0.2,1.3,0.3,2.2,0.3,2.5c0,0.3-0.1,0.8-0.2,1.5c-0.8,0-1.5,0.1-2,0.1c-3.9,0-7.1-0.1-9.8-0.4c-2.7-0.3-7.6-0.4-14.7-0.4
			c-1.1,0-4.4,0.2-9.9,0.7c-2.1,0.2-3.5,0.2-4.2,0.2c0-0.6-0.1-1-0.1-1.3l-0.1-1.3v-0.4c0.8-1.1,2.4-1.9,4.7-2.4
			c3.9-0.9,6.6-1.8,8.1-2.5c0.4-0.7,0.6-1.6,0.7-2.8c0.3-4.5,0.4-11.7,0.4-21.5l-0.3-20.6c0-5.8-0.1-9.4-0.3-10.6
			c-0.1-0.3-0.2-0.6-0.4-0.8c-0.2-0.2-0.4-0.3-0.8-0.3c-1.2-0.1-4.9-0.2-11.4-0.2c-3.5,0-5.9,0.3-7.1,1c-1.6,0.9-4,3.5-7.3,7.6
			c-0.9,1.2-1.6,1.8-2.1,1.8c-1.7-0.9-2.8-1.6-3.3-2.2c1.2-2.4,2.8-7.3,4.8-14.6C635.4,115.4,635.9,113.9,636.1,113.2z"/>
		<path class="st0" d="M699.5,188.4l0.1-3.8c0.7-0.2,2-0.5,3.8-0.8c2.9-0.6,4.6-1.1,5.3-1.5c0.6-0.4,1.4-1.5,2.3-3.3l11.3-29.7
			l13.3-34.9c1.2,0,2.4,0,3.6,0h2.5l0.5,1l9.8,23.2c2.2,4.9,4.2,9.7,6,14.3c1.8,4.6,3.3,8.4,4.5,11.3c0.7,1.8,1.8,4.4,3.1,7.9
			c0.7,1.9,1.7,4.3,3.1,7.2c0.7,1.6,1.3,2.5,1.7,2.8c0.7,0.6,1.8,0.9,3.3,1.1c1.5,0.2,3.2,0.6,4.9,1.3c0.2,1.2,0.3,2.2,0.3,2.8
			c0,0.3,0,0.7-0.1,1.2c-2.8,0-5.8-0.1-9.2-0.4c-3.3-0.3-6.3-0.4-9-0.4c-3,0-5.1,0-6.4,0.1l-9.6,0.5l-2.8,0.1c0-1.3,0.1-2.6,0.2-3.8
			l6.2-1.3c1.9-0.5,3-0.9,3.3-1.1c0.4-0.4,0.6-0.8,0.6-1.3c0-0.5-0.1-1-0.3-1.5l-2.2-5.5l-4.4-11l-21.5-0.1c-0.8,1.8-2.4,6.2-5,13.2
			c-0.7,2-1.1,3.3-1.1,4c0,1,0.3,1.7,0.8,2.1c0.9,0.7,2.5,1.2,4.9,1.5c0.3,0.1,1.7,0.3,4,0.6c0,1.3,0.1,2.3,0.1,2.8
			c0,0.4,0,0.8-0.1,1.3c-2.3,0-7.9-0.3-16.6-1l-2.3,0.4c-2.8,0.4-5.4,0.7-7.9,0.7H699.5z M725.9,156.9c8.8,0.1,13.9,0.2,15.5,0.2
			l1.4-0.1c-1.1-3.3-2.6-7.2-4.4-11.7c-1.8-4.4-3.3-7.8-4.4-10.1L725.9,156.9z"/>
	</g>
	<g>
		<g>
			<path class="st1" d="M167.5,115.3c4.4-1.6,24.6-3.3,24.6,9.1c0,3.8-2.7,6.4-6.6,6.5c-8.7,0.2-5.2-10.1-5.4-10.1
				c-20.9,0-12.5,44.9-11.6,51.9c-0.2,5.6-3.5,7.4-7.6,7.6c-3.7,0.1-5.6-1.6-6.7-4.5c-1.5-4.1-1.9-44.1,18.7-57.4
				c-5.6,0-22.4,11.1-29.6,33.4c0.5,1,0.8,12.3,0.1,16.6c-0.2,5.9-1.7,9.9-7.1,9.9c-4.4,0-7.6-3.3-7-9.9c1-11.8,5.3-46.3-6.7-51.8
				c-12.7,4.8-6.7,48.9-6.7,51.8c0.2,4.6-0.8,9.9-7.5,9.9c-7.2,0-7-4.6-7.1-9.9c0-4.6,0.3-12.6,0.7-16.5
				c-9.8-23.6-24-33.5-29.4-33.5c20.5,13.4,20,53.4,18.4,57.5c-1,2.9-2.9,4.6-6.5,4.5c-4.1-0.3-7.5-2.3-7.6-7.7
				c0.8-6.9,9.1-51.8-11.8-51.8c-0.3,0,3.4,10.3-5.4,10.1c-3.9-0.1-6.7-2.6-6.7-6.5c0-12.4,20.2-10.8,24.6-9.1
				c10.2,3.7,19.8,14.6,25.3,27.6c2.3-13.3,10-28.8,19.7-30.5c9.7,1.6,17.2,17.2,19.8,30.3C147.4,130.7,154.5,121.1,167.5,115.3"/>
			<path class="st1" d="M78,189c0-3.5,2.9-6.3,6.4-6.3c3.5,0,6.4,2.8,6.4,6.3c0,3.6-2.9,6.4-6.4,6.4C80.9,195.3,78,192.5,78,189"/>
			<path class="st1" d="M101.6,187.4c0-3.5,2.8-6.3,6.4-6.3c3.5,0,6.3,2.8,6.3,6.3c0,3.6-2.8,6.4-6.3,6.4
				C104.4,193.8,101.6,191,101.6,187.4"/>
			<path class="st1" d="M130.2,186.8c0-3.6,2.9-6.4,6.4-6.4c3.5,0,6.4,2.8,6.4,6.4c0,3.5-2.9,6.3-6.4,6.3
				C133.1,193.1,130.2,190.3,130.2,186.8"/>
			<path class="st1" d="M154.3,188.7c0-3.5,2.8-6.3,6.4-6.3c3.5,0,6.4,2.8,6.4,6.3c0,3.6-2.9,6.4-6.4,6.4
				C157.1,195.1,154.3,192.2,154.3,188.7"/>
			<polygon class="st1" points="119.2,47.8 113.7,43.8 120.5,43.8 122.6,37.5 124.7,43.8 131.5,43.8 126.1,47.8 128.1,54.1 
				122.6,50.2 117.1,54.1 			"/>
			<polygon class="st1" points="119.2,91 113.7,87.1 120.5,87.1 122.6,80.7 124.7,87.1 131.5,87.1 126.1,91 128.1,97.3 122.6,93.4 
				117.1,97.3 			"/>
			<polygon class="st1" points="96.3,50.3 90.8,46.3 97.6,46.3 99.7,40 101.8,46.3 108.5,46.3 103.1,50.3 105.2,56.6 99.7,52.7 
				94.2,56.6 			"/>
			<polygon class="st1" points="96.3,89.1 90.8,85.1 97.6,85.1 99.7,78.8 101.8,85.1 108.5,85.1 103.1,89.1 105.2,95.4 99.7,91.5 
				94.2,95.4 			"/>
			<polygon class="st1" points="74.6,55.8 69.2,51.8 76,51.8 78,45.5 80.2,51.8 86.9,51.8 81.5,55.8 83.5,62.1 78,58.2 72.5,62.1 
							"/>
			<polygon class="st1" points="74.6,83.7 69.2,79.8 76,79.8 78,73.4 80.2,79.8 86.9,79.8 81.5,83.7 83.5,90 78,86.2 72.5,90 			"/>
			<polygon class="st1" points="142.1,50.3 136.6,46.3 143.4,46.3 145.5,40 147.7,46.3 154.4,46.3 149,50.3 151,56.6 145.5,52.7 
				140,56.6 			"/>
			<polygon class="st1" points="142.1,89.1 136.6,85.1 143.4,85.1 145.5,78.8 147.7,85.1 154.4,85.1 149,89.1 151,95.4 145.5,91.5 
				140,95.4 			"/>
			<polygon class="st1" points="163.8,55.8 158.3,51.8 165.1,51.8 167.2,45.5 169.3,51.8 176,51.8 170.6,55.8 172.6,62.1 
				167.2,58.2 161.7,62.1 			"/>
			<polygon class="st1" points="163.8,83.7 158.3,79.8 165.1,79.8 167.2,73.4 169.3,79.8 176,79.8 170.6,83.7 172.6,90 167.2,86.2 
				161.7,90 			"/>
			<polygon class="st1" points="180.1,69.9 174.7,65.9 181.5,66 183.6,59.6 185.7,66 192.4,65.9 187,69.9 189,76.2 183.6,72.3 
				178,76.2 			"/>
			<polygon class="st1" points="58.3,69.9 52.8,65.9 59.5,66 61.6,59.6 63.8,66 70.5,65.9 65.1,69.9 67.1,76.2 61.7,72.3 56.1,76.2 
							"/>
			<path class="st0" d="M236.5,212.8c-6.4-0.6-10.2,4.5-13.8,11.3c0.3-11.9-5.4-24-6.5-29.6c-0.8-3.2,3.6-5.8,6.5-3.3
				c1.7,2.2,2,4,1,8c2.4,0.7,5.1-5,1.5-8.7c-3.8-4.7-11.6-3.1-11.7,3.1c2.4,14.5,9.6,26.7,4.7,37.9c-0.6,1.4-1,2.9-1.2,3.4
				c4.6-19.5-21.5-45.3-22.3-53.3c-0.7-5.4,8-6.5,3.4,2.4c3.2-0.2,4.9-3.6,4.2-5.9c-0.2-2.3-2.4-4-4.9-4c-2.6,0.3-5,2.4-5.5,4.4
				c-0.9,3.7,2,11.3,8.2,20.3c9.3,13.1,16.5,28.9,12.3,39.3c-2.7-18.1-17.1-16.6-24.6-28.9c-5.5-8.8,10.1-13.4,4.9,0.5
				c7.3-1.6,4.4-10.6-1.3-11.7c-2.9-0.6-7,1.5-7.8,5.7c-1,3.2,1.2,9.7,8.8,16c-13-1-20.3,10-12.6,14.6c-0.1-15.8,29-10.6,29.4,5.4
				c-13.8-20.7-30.1,1.8-17.4,6.8c3.6,0.5,5.9-0.5,7.2-2.6c0.2-0.3-5.9,0.8-6.4-3.5c0.1-2.2,2.3-3.7,3.8-3.7
				c4.8,0.2,10.9,11-1.8,19.2c-0.9-1-2.3-1.8-3.8-1.8c-2.4,0-4.5,1.8-4.9,4.2c-0.1-0.1-0.2,0.1-0.5,0c-21.6-1.9-17.3-37.9-17-50.6
				c0.3-13.3-16-12.7-15.8-1.9c0,9.9,7.5,45.5,19.6,51.9c-16.9-1.3-28.4-26.1-28.4-52.4c0-10.1-9.1-10.3-12.3-5.5
				c-2.4,3.2-5.9,10.5-9.5,19.4c0,0,0,0,0,0l0,0h0c-3.6-8.9-7.1-16.3-9.5-19.4c-3.2-4.8-12.3-4.6-12.3,5.5
				c0,26.2-11.5,51.1-28.4,52.4c12.1-6.4,19.6-42,19.6-51.9c0.2-10.9-16.1-11.4-15.8,1.9c0.3,12.7,4.6,48.7-17,50.6
				c-0.3,0.1-0.4-0.1-0.5,0c-0.4-2.4-2.4-4.2-4.9-4.2c-1.5,0-2.9,0.8-3.8,1.8c-12.6-8.2-6.6-19-1.8-19.2c1.5-0.1,3.8,1.4,3.8,3.7
				c-0.5,4.3-6.5,3.2-6.4,3.5c1.3,2.2,3.6,3.2,7.2,2.6c12.7-5-3.6-27.5-17.4-6.8c0.5-16,29.5-21.3,29.4-5.4
				c7.7-4.6,0.5-15.6-12.6-14.6c7.6-6.3,9.8-12.8,8.8-16c-0.7-4.2-4.9-6.3-7.8-5.7c-5.7,1.1-8.6,10.1-1.3,11.7
				c-5.2-13.9,10.4-9.3,4.9-0.5c-7.6,12.3-21.9,10.8-24.6,28.9c-4.2-10.4,3-26.2,12.3-39.3c6.3-9,9.2-16.7,8.2-20.3
				c-0.5-2.1-2.9-4.1-5.5-4.4c-2.4,0-4.7,1.7-4.9,4c-0.7,2.3,1,5.7,4.2,5.9c-4.6-8.8,4.1-7.8,3.4-2.4c-0.8,8.1-26.9,33.8-22.3,53.3
				c-0.2-0.5-0.7-2-1.2-3.4c-4.9-11.2,2.3-23.3,4.7-37.9c-0.1-6.2-7.9-7.8-11.7-3.1c-3.6,3.7-0.9,9.4,1.5,8.7c-1-3.9-0.7-5.7,1-8
				c2.8-2.5,7.3,0.1,6.5,3.3c-1,5.6-6.7,17.7-6.5,29.6c-3.6-6.8-7.4-11.9-13.8-11.3c11.7,2.3,8.1,42.9,40.8,47.5
				c0.7,2.1,2.6,3.7,4.9,3.7c1.5,0,2.9-0.8,3.8-1.8v-0.1c0.3,0.1,0.7,0.1,0.9,0.2c42.7,4,53.5-40.1,55.3-54.9
				c3.8,5.1,6.2,11.3,7.7,16c-6.6,17.3-11.7,37.4,0.9,39.3l0,0h0.2l0,0c12.7-2,7.6-22.1,0.9-39.3c1.6-4.7,3.9-10.9,7.7-16
				c1.8,14.8,12.6,58.9,55.3,54.9c0.3-0.1,0.7-0.1,0.9-0.2v0.1c0.9,1,2.3,1.8,3.8,1.8c2.2,0,4.2-1.6,4.9-3.7
				C228.5,255.8,224.8,215.1,236.5,212.8z M126,250c0.4,2.8,0.3,8.5-3.8,9.1h-0.3c0,0,0,0,0,0c-4-0.7-4.1-6.4-3.7-9.1
				c0,0,0.4-7.1,2.2-15.6c0.2-1.2,1.1-4.2,1.6-6l0-0.4l0,0v0.4c0-0.1,0.1-0.2,0.1-0.3c0,0,0,0,0,0l0,0c0,0,0,0,0,0
				c0,0.1,0.1,0.2,0.1,0.3v-0.4h0l0,0.4c0.5,1.8,1.4,4.9,1.6,6C125.6,242.9,126,250,126,250z"/>
		</g>
	</g>
</g>
</svg>
