<?xml version="1.0" encoding="utf-8"?>
<!-- Generator: Adobe Illustrator 27.5.0, SVG Export Plug-In . SVG Version: 6.00 Build 0)  -->
<svg version="1.1" id="Camada_1" xmlns="http://www.w3.org/2000/svg" xmlns:xlink="http://www.w3.org/1999/xlink" x="0px" y="0px"
	 viewBox="0 0 30 30" style="enable-background:new 0 0 30 30;" xml:space="preserve">
<style type="text/css">
	.st0{fill:#F01A1A;}
</style>
<g>
	<g>
		<path class="st0" d="M15,0C6.7,0,0,6.7,0,15c0,8.3,6.7,15,15,15c8.3,0,15-6.7,15-15C30,6.7,23.3,0,15,0z M24.7,17.8
			c0,2.2-1.8,4-4,4H9.3c-2.2,0-4-1.8-4-4v-5.7c0-2.2,1.8-4,4-4h11.3c2.2,0,4,1.8,4,4V17.8z"/>
		<path class="st0" d="M17.9,14.9l-5.3-2.7c-0.1-0.1-0.3,0-0.3,0.2v5.2c0,0.2,0.2,0.3,0.3,0.2l5.3-2.5C18.1,15.2,18.1,15,17.9,14.9z
			"/>
	</g>
</g>
<g>
</g>
<g>
</g>
<g>
</g>
<g>
</g>
<g>
</g>
<g>
</g>
</svg>
